<svg width="30" height="21" viewBox="0 0 30 21" fill="none" xmlns="http://www.w3.org/2000/svg">
<path d="M27.2928 0H2.16872C1.67534 0.000560118 1.20235 0.17067 0.853479 0.473027C0.504606 0.775384 0.308325 1.18531 0.307678 1.6129V15.3226C0.308325 15.7502 0.504606 16.1601 0.853479 16.4625C1.20235 16.7648 1.67534 16.9349 2.16872 16.9355H11.7589L11.1384 18.5484H9.61289C9.48949 18.5484 9.37115 18.5909 9.2839 18.6665C9.19665 18.7421 9.14763 18.8447 9.14763 18.9516V19.7581H4.96028C4.83689 19.7581 4.71855 19.8005 4.63129 19.8762C4.54404 19.9518 4.49502 20.0543 4.49502 20.1613C4.49502 20.2682 4.54404 20.3708 4.63129 20.4464C4.71855 20.522 4.83689 20.5645 4.96028 20.5645H25.4317C25.5551 20.5645 25.6735 20.522 25.7607 20.4464C25.848 20.3708 25.897 20.2682 25.897 20.1613C25.897 20.0543 25.848 19.9518 25.7607 19.8762C25.6735 19.8005 25.5551 19.7581 25.4317 19.7581H20.3139V18.9516C20.3139 18.8447 20.2649 18.7421 20.1776 18.6665C20.0904 18.5909 19.972 18.5484 19.8486 18.5484H18.3231L17.7026 16.9355H27.2928C27.7862 16.9349 28.2592 16.7648 28.608 16.4625C28.9569 16.1601 29.1532 15.7502 29.1538 15.3226V1.6129C29.1532 1.18531 28.9569 0.775384 28.608 0.473027C28.2592 0.17067 27.7862 0.000560118 27.2928 0ZM19.3834 19.3548V19.7581H10.0781V19.3548H19.3834ZM12.1195 18.5484L12.74 16.9355H16.7215L17.342 18.5484H12.1195ZM28.2233 15.3226C28.223 15.5364 28.1248 15.7413 27.9504 15.8925C27.776 16.0437 27.5395 16.1288 27.2928 16.129H2.16872C1.92203 16.1288 1.68554 16.0437 1.5111 15.8925C1.33666 15.7413 1.23852 15.5364 1.2382 15.3226V14.5161H28.2233V15.3226ZM8.19733 10.0806L8.02286 13.7097H7.48083L7.30636 10.0806H8.19733ZM7.37033 9.27419L7.68089 7.66129H7.8228L8.13336 9.27419H7.37033ZM7.75185 6.85484C7.24762 6.85484 6.82133 6.30091 6.82133 5.64516C6.82133 5.23135 7.30869 4.63004 7.75068 4.20615C8.14906 4.58921 8.68237 5.20161 8.68237 5.64516C8.68237 6.30091 8.25607 6.85484 7.75185 6.85484ZM12.815 6.04839L12.8697 6.14365V6.45161H11.0087V6.14365L11.0633 6.04839H12.815ZM11.5286 5.24194L11.9392 4.53075L12.3498 5.24194H11.5286ZM12.8697 7.25806V13.6593C12.8699 13.6761 12.8713 13.693 12.8738 13.7097H11.0046C11.0071 13.693 11.0085 13.6761 11.0087 13.6593V7.25806H12.8697ZM17.0571 5.64516H18.4528V6.45161H17.9876C17.8642 6.45161 17.7458 6.4941 17.6586 6.56971C17.5713 6.64533 17.5223 6.7479 17.5223 6.85484C17.5223 6.96178 17.5713 7.06434 17.6586 7.13996C17.7458 7.21558 17.8642 7.25806 17.9876 7.25806H18.4528V8.06452H17.0571C16.9337 8.06452 16.8153 8.107 16.7281 8.18262C16.6408 8.25824 16.5918 8.3608 16.5918 8.46774C16.5918 8.57468 16.6408 8.67725 16.7281 8.75287C16.8153 8.82849 16.9337 8.87097 17.0571 8.87097H18.4528V9.67742H17.9876C17.8642 9.67742 17.7458 9.7199 17.6586 9.79552C17.5713 9.87114 17.5223 9.9737 17.5223 10.0806C17.5223 10.1876 17.5713 10.2901 17.6586 10.3658C17.7458 10.4414 17.8642 10.4839 17.9876 10.4839H18.4528V11.2903H17.0571C16.9337 11.2903 16.8153 11.3328 16.7281 11.4084C16.6408 11.484 16.5918 11.5866 16.5918 11.6935C16.5918 11.8005 16.6408 11.9031 16.7281 11.9787C16.8153 12.0543 16.9337 12.0968 17.0571 12.0968H18.4528V13.7097H15.196V4.03226H18.4528V4.83871H17.0571C16.9337 4.83871 16.8153 4.88119 16.7281 4.95681C16.6408 5.03243 16.5918 5.13499 16.5918 5.24194C16.5918 5.34888 16.6408 5.45144 16.7281 5.52706C16.8153 5.60268 16.9337 5.64516 17.0571 5.64516ZM22.6402 10.4839V13.6593C22.6404 13.6761 22.6417 13.693 22.6443 13.7097H20.7751C20.7776 13.693 20.779 13.6761 20.7791 13.6593V10.4839H22.6402ZM20.7791 9.67742V9.36946L21.7097 7.75655L22.6402 9.36946V9.67742H20.7791ZM28.2233 13.7097H23.5666C23.5692 13.693 23.5705 13.6761 23.5707 13.6593V9.27419C23.5706 9.21159 23.5539 9.14985 23.5219 9.09375L22.1261 6.6744C22.0873 6.60743 22.0279 6.55113 21.9543 6.51178C21.8808 6.47243 21.7961 6.4516 21.7097 6.4516C21.6232 6.4516 21.5385 6.47243 21.465 6.51178C21.3914 6.55113 21.332 6.60743 21.2933 6.6744L19.8975 9.09375C19.8654 9.14985 19.8487 9.21159 19.8486 9.27419V13.6593C19.8488 13.6761 19.8502 13.693 19.8527 13.7097H19.3834V3.62903C19.3834 3.52209 19.3343 3.41953 19.2471 3.34391C19.1598 3.26829 19.0415 3.22581 18.9181 3.22581H14.7308C14.6074 3.22581 14.489 3.26829 14.4018 3.34391C14.3145 3.41953 14.2655 3.52209 14.2655 3.62903V13.7097H13.7962C13.7987 13.693 13.8001 13.6761 13.8002 13.6593V6.04839C13.8002 5.98579 13.7834 5.92404 13.7514 5.86794L12.3556 3.44859C12.3169 3.38163 12.2574 3.32532 12.1839 3.28598C12.1103 3.24663 12.0256 3.22579 11.9392 3.22579C11.8528 3.22579 11.768 3.24663 11.6945 3.28598C11.621 3.32532 11.5615 3.38163 11.5228 3.44859L10.127 5.86794C10.0949 5.92404 10.0782 5.98579 10.0781 6.04839V13.6593C10.0783 13.6761 10.0797 13.693 10.0822 13.7097H8.95396L9.14705 9.69405C9.14763 9.68498 9.14705 9.67591 9.14705 9.66633V9.65423C9.14597 9.64004 9.14403 9.62591 9.14123 9.61189V9.61089L8.71087 7.37248C9.25115 7.01915 9.61289 6.37702 9.61289 5.64516C9.61289 4.60887 8.22699 3.46119 8.06881 3.33367C7.9826 3.26442 7.86939 3.22594 7.75185 3.22594C7.6343 3.22594 7.52109 3.26442 7.43489 3.33367C7.2767 3.46119 5.8908 4.60887 5.8908 5.64516C5.8908 6.37702 6.25254 7.01915 6.79283 7.37248L6.36246 9.61089V9.61189C6.35967 9.62591 6.35772 9.64004 6.35665 9.65423V9.66633C6.35665 9.67591 6.35607 9.68498 6.35665 9.69405L6.54973 13.7097H1.2382V1.6129C1.23852 1.3991 1.33666 1.19414 1.5111 1.04297C1.68554 0.891787 1.92203 0.806732 2.16872 0.806452H27.2928C27.5395 0.806732 27.776 0.891787 27.9504 1.04297C28.1248 1.19414 28.223 1.3991 28.2233 1.6129V13.7097Z" fill="black"/>
<path d="M5.42559 14.9193H2.63402C2.51063 14.9193 2.39229 14.9618 2.30503 15.0374C2.21778 15.113 2.16876 15.2156 2.16876 15.3225C2.16876 15.4295 2.21778 15.532 2.30503 15.6077C2.39229 15.6833 2.51063 15.7258 2.63402 15.7258H5.42559C5.54898 15.7258 5.66732 15.6833 5.75457 15.6077C5.84183 15.532 5.89085 15.4295 5.89085 15.3225C5.89085 15.2156 5.84183 15.113 5.75457 15.0374C5.66732 14.9618 5.54898 14.9193 5.42559 14.9193Z" fill="black"/>
<path d="M7.2866 14.9193H6.82134C6.69794 14.9193 6.5796 14.9618 6.49235 15.0374C6.4051 15.113 6.35608 15.2156 6.35608 15.3225C6.35608 15.4295 6.4051 15.532 6.49235 15.6077C6.5796 15.6833 6.69794 15.7258 6.82134 15.7258H7.2866C7.40999 15.7258 7.52834 15.6833 7.61559 15.6077C7.70284 15.532 7.75186 15.4295 7.75186 15.3225C7.75186 15.2156 7.70284 15.113 7.61559 15.0374C7.52834 14.9618 7.40999 14.9193 7.2866 14.9193Z" fill="black"/>
<path d="M11.9392 7.66125C11.8158 7.66125 11.6975 7.70374 11.6102 7.77936C11.523 7.85498 11.4739 7.95754 11.4739 8.06448V12.5C11.4739 12.6069 11.523 12.7095 11.6102 12.7851C11.6975 12.8607 11.8158 12.9032 11.9392 12.9032C12.0626 12.9032 12.1809 12.8607 12.2682 12.7851C12.3554 12.7095 12.4045 12.6069 12.4045 12.5V8.06448C12.4045 7.95754 12.3554 7.85498 12.2682 7.77936C12.1809 7.70374 12.0626 7.66125 11.9392 7.66125Z" fill="black"/>
<path d="M21.7096 10.8871C21.5863 10.8871 21.4679 10.9296 21.3807 11.0052C21.2934 11.0808 21.2444 11.1834 21.2444 11.2903V12.5C21.2444 12.6069 21.2934 12.7095 21.3807 12.7851C21.4679 12.8607 21.5863 12.9032 21.7096 12.9032C21.833 12.9032 21.9514 12.8607 22.0386 12.7851C22.1259 12.7095 22.1749 12.6069 22.1749 12.5V11.2903C22.1749 11.1834 22.1259 11.0808 22.0386 11.0052C21.9514 10.9296 21.833 10.8871 21.7096 10.8871Z" fill="black"/>
<path d="M2.63402 2.41937H6.35611C6.4795 2.41937 6.59784 2.37688 6.6851 2.30126C6.77235 2.22564 6.82137 2.12308 6.82137 2.01614C6.82137 1.9092 6.77235 1.80664 6.6851 1.73102C6.59784 1.6554 6.4795 1.61292 6.35611 1.61292H2.63402C2.51063 1.61292 2.39229 1.6554 2.30503 1.73102C2.21778 1.80664 2.16876 1.9092 2.16876 2.01614C2.16876 2.12308 2.21778 2.22564 2.30503 2.30126C2.39229 2.37688 2.51063 2.41937 2.63402 2.41937Z" fill="black"/>
<path d="M2.63402 3.62908H3.56454C3.68794 3.62908 3.80628 3.5866 3.89353 3.51098C3.98079 3.43536 4.0298 3.3328 4.0298 3.22586C4.0298 3.11892 3.98079 3.01635 3.89353 2.94073C3.80628 2.86511 3.68794 2.82263 3.56454 2.82263H2.63402C2.51063 2.82263 2.39229 2.86511 2.30503 2.94073C2.21778 3.01635 2.16876 3.11892 2.16876 3.22586C2.16876 3.3328 2.21778 3.43536 2.30503 3.51098C2.39229 3.5866 2.51063 3.62908 2.63402 3.62908Z" fill="black"/>
<path d="M24.9665 12.9033H26.8275C26.9509 12.9033 27.0693 12.8608 27.1565 12.7852C27.2438 12.7095 27.2928 12.607 27.2928 12.5C27.2928 12.3931 27.2438 12.2905 27.1565 12.2149C27.0693 12.1393 26.9509 12.0968 26.8275 12.0968H24.9665C24.8431 12.0968 24.7247 12.1393 24.6375 12.2149C24.5502 12.2905 24.5012 12.3931 24.5012 12.5C24.5012 12.607 24.5502 12.7095 24.6375 12.7852C24.7247 12.8608 24.8431 12.9033 24.9665 12.9033Z" fill="black"/>
<path d="M26.3623 11.6935H26.8276C26.9509 11.6935 27.0693 11.6511 27.1565 11.5754C27.2438 11.4998 27.2928 11.3973 27.2928 11.2903C27.2928 11.1834 27.2438 11.0808 27.1565 11.0052C27.0693 10.9296 26.9509 10.8871 26.8276 10.8871H26.3623C26.2389 10.8871 26.1206 10.9296 26.0333 11.0052C25.9461 11.0808 25.897 11.1834 25.897 11.2903C25.897 11.3973 25.9461 11.4998 26.0333 11.5754C26.1206 11.6511 26.2389 11.6935 26.3623 11.6935Z" fill="black"/>
</svg>
