<svg width="30" height="24" viewBox="0 0 30 24" fill="none" xmlns="http://www.w3.org/2000/svg">
<path d="M0.307678 0V20.5205H9.56617V21.9877H7.87393V23.4526H21.5875V21.9877H19.8953V20.5205H29.1538V0H0.307678ZM18.205 21.9877H11.2565V20.5205H18.205V21.9877H18.205ZM27.4636 19.0556H1.99794V16.1222H27.4635V19.0556H27.4636ZM27.4636 14.6573H1.99794V1.46494H27.4635V14.6573H27.4636Z" fill="black"/>
<path d="M11.7979 5.4134L10.6027 4.37756L6.35242 8.06111L10.6027 11.7446L11.7979 10.7088L8.74282 8.06111L11.7979 5.4134Z" fill="black"/>
<path d="M18.8589 4.37756L17.6637 5.4134L20.7187 8.06111L17.6637 10.7088L18.8589 11.7446L23.1091 8.06111L18.8589 4.37756Z" fill="black"/>
<path d="M14.883 3.64405L12.9208 12.1931L14.5786 12.4789L16.5408 3.92986L14.883 3.64405Z" fill="black"/>
</svg>
